<svg width="16" height="16" viewBox="0 0 16 16" fill="none" xmlns="http://www.w3.org/2000/svg">
<g clip-path="url(#clip0_1_7794)">
<rect width="16" height="16" fill="transparent"/>
<path fill-rule="evenodd" clip-rule="evenodd" d="M15.8486 3.86288C14.1292 4.76256 13 6.27984 13 8C13 9.72017 14.1293 11.2374 15.8486 12.1371C14.4469 14.4525 11.9042 16 9.00001 16C4.58173 16 1 12.4183 1 8.00001C1 3.58173 4.58173 0 9.00001 0C11.9042 0 14.4469 1.5475 15.8486 3.86288Z" fill="#E36F59"/>
<path d="M6.57849 5.61364L5.79605 5.86932L5.92943 5.68182V10.3438L5.79605 10.1648L6.57849 10.3864V11H4V10.3864L4.77355 10.1733L4.65796 10.3438V5.68182L4.81801 5.86932L4 5.65625V5.04261L6.57849 5V5.61364Z" fill="white"/>
<path d="M8.06113 11V10.3864L9.04807 10.1477L8.81689 10.4545V5.69034L9.07474 5.87784H7.62545L7.90998 5.6392L7.66991 6.72159H6.91414V5H12V6.72159H11.2442L11.022 5.69034L11.2887 5.87784H9.8394L10.0972 5.69034V10.4545L9.87497 10.1477L10.853 10.3864V11H8.06113Z" fill="white"/>
</g>
<defs>
<clipPath id="clip0_1_7794">
<rect width="16" height="16" fill="white"/>
</clipPath>
</defs>
</svg>
